<svg id="brand_qq_outline_24" viewBox="0 0 24 24" fill="none" xmlns="http://www.w3.org/2000/svg"><path d="M11.6514 2.75195C13.0182 2.72029 14.1438 3.02848 15.0498 3.58496C15.9529 4.13968 16.5957 4.91536 17.041 5.75488C17.8739 7.32523 18.046 9.17079 17.959 10.4678C18.7631 12.1301 19.2739 13.7885 19.5342 15.0703C19.6687 15.7327 19.7415 16.3173 19.749 16.7617C19.7527 16.9778 19.7423 17.2014 19.6973 17.3965C19.6751 17.4923 19.6354 17.6236 19.5557 17.752C19.4752 17.8814 19.3105 18.0732 19.0264 18.1416C18.7419 18.21 18.503 18.1208 18.374 18.0566C18.2364 17.9882 18.121 17.8971 18.0332 17.8184C17.929 17.7249 17.8274 17.614 17.7305 17.499C17.525 18.0229 17.2711 18.4587 17.0088 18.8066C17.2125 18.9244 17.4529 19.0855 17.6367 19.2842C17.7944 19.4547 18.1325 19.9088 17.8779 20.46L17.8369 20.5498L17.7734 20.625C17.5814 20.8559 17.313 20.9633 17.1484 21.0176C16.9555 21.0812 16.7357 21.1247 16.5146 21.1562C16.0696 21.2197 15.5243 21.2468 14.9658 21.25C13.892 21.2561 12.6772 21.1726 11.8525 21.0488C11.0324 21.1292 9.83139 21.1787 8.79395 21.166C8.25464 21.1594 7.73857 21.1359 7.33398 21.0889C7.1349 21.0657 6.93681 21.0345 6.76758 20.9873C6.68372 20.9639 6.58245 20.9301 6.4834 20.8789C6.39911 20.8353 6.22884 20.7353 6.11035 20.5381C5.99984 20.3542 5.94321 20.1408 5.95996 19.917C5.97602 19.7028 6.05561 19.5252 6.1416 19.3916C6.30356 19.1403 6.54479 18.9588 6.73633 18.8369C6.79663 18.7985 6.85885 18.761 6.92285 18.7256C6.62573 18.317 6.4047 17.8912 6.24316 17.4824C6.13909 17.6093 6.03177 17.733 5.92285 17.8311C5.84526 17.9009 5.71503 18.0085 5.54688 18.0752C5.36829 18.146 4.97063 18.2237 4.64355 17.9062L4.60742 17.8711L4.57617 17.832C4.37037 17.5698 4.29621 17.2546 4.26758 17C4.23757 16.7328 4.24846 16.4411 4.2793 16.1494C4.34116 15.5645 4.49749 14.8778 4.69141 14.1875C5.062 12.8682 5.59964 11.4361 6.00293 10.4639C5.97043 7.45047 6.80205 5.51108 7.99414 4.31836C9.19524 3.11666 10.659 2.77496 11.6514 2.75195Z" stroke="currentColor" stroke-width="1.5"></path><ellipse cx="12" cy="10" rx="3" ry="1" fill="currentColor"></ellipse></svg>